<?xml version="1.0" standalone="no"?>
<!DOCTYPE svg PUBLIC "-//W3C//DTD SVG 20010904//EN"
 "http://www.w3.org/TR/2001/REC-SVG-20010904/DTD/svg10.dtd">
<svg version="1.0" xmlns="http://www.w3.org/2000/svg"
 width="200.000000pt" height="200.000000pt" viewBox="0 0 200.000000 200.000000"
 preserveAspectRatio="xMidYMid meet">
<metadata>
Created by potrace 1.14, written by Peter Selinger 2001-2017
</metadata>
<g transform="translate(0.000000,200.000000) scale(0.100000,-0.100000)"
fill="#000000" stroke="none">
<path d="M804 1985 c-416 -66 -729 -312 -789 -622 -14 -68 -13 -198 0 -247 87
-308 391 -540 790 -600 88 -13 320 -14 395 -1 212 36 416 125 550 241 389 334
310 850 -170 1102 -88 46 -211 95 -270 105 -14 3 -36 8 -50 11 -63 15 -94 17
-230 21 -86 2 -178 -2 -226 -10z m359 -284 c32 -13 77 -37 100 -55 33 -26 56
-34 104 -39 82 -9 161 -40 212 -83 52 -45 72 -82 72 -137 1 -55 -11 -85 -52
-126 -35 -34 -141 -91 -170 -91 -9 0 -21 -6 -26 -12 -6 -7 -22 -87 -37 -178
-25 -154 -41 -200 -68 -200 -4 0 -8 110 -8 244 0 263 0 262 -54 272 -17 3 -32
-2 -46 -16 -18 -18 -20 -33 -20 -161 0 -132 1 -141 20 -146 18 -5 20 -14 20
-104 l0 -99 -63 0 -62 0 0 156 c0 153 1 157 23 165 21 8 22 14 22 109 0 60 -4
100 -10 100 -9 0 -12 -22 -13 -97 0 -22 -5 -33 -14 -33 -11 0 -14 12 -13 48 1
26 1 56 1 67 -2 18 -3 19 -15 3 -8 -11 -11 -36 -8 -68 3 -41 1 -50 -13 -50
-12 0 -16 8 -15 28 4 57 0 102 -10 102 -6 0 -10 -28 -10 -64 0 -36 -4 -68 -10
-71 -5 -3 -11 2 -11 12 -1 10 -3 34 -4 53 -1 19 -3 43 -4 53 0 9 -5 17 -11 17
-6 0 -10 -40 -10 -100 0 -98 0 -100 25 -106 l25 -6 0 -159 0 -159 -82 0 -83 0
2 132 c1 73 2 140 2 149 1 9 13 22 27 29 84 45 63 182 -32 209 -60 17 -135
-26 -150 -86 -11 -40 14 -103 47 -121 l29 -17 1 -105 c2 -145 1 -182 -6 -189
-10 -10 -59 23 -72 49 -7 14 -27 97 -45 185 l-33 160 -43 7 c-49 8 -137 50
-170 81 -78 72 -71 199 14 271 48 40 140 75 215 81 49 4 69 11 88 29 32 31
116 73 167 85 69 16 213 6 277 -18z"/>
<path d="M194 379 c-35 -10 -60 -34 -66 -64 -2 -12 -11 -20 -23 -20 -30 0 -33
-42 -3 -47 21 -3 23 -8 24 -68 1 -36 2 -73 3 -82 1 -14 10 -18 41 -18 l39 0 3
83 c3 81 3 82 29 83 36 1 48 11 42 33 -3 12 -12 17 -27 16 -13 -2 -29 1 -37 6
-20 14 17 40 46 33 17 -4 24 0 28 17 4 13 5 25 3 26 -8 8 -74 9 -102 2z"/>
<path d="M915 381 c-3 -2 -5 -26 -5 -52 l0 -49 -27 11 c-61 24 -155 2 -188
-44 -8 -12 -15 -38 -15 -59 0 -76 97 -126 195 -100 25 7 44 7 49 1 12 -11 65
-12 67 -1 7 45 2 292 -6 293 -52 4 -67 4 -70 0z m-27 -147 c46 -32 15 -104
-45 -104 -76 0 -106 70 -48 112 17 13 70 9 93 -8z"/>
<path d="M1740 321 c0 -24 -4 -29 -20 -26 -11 2 -20 1 -21 -3 0 -4 -2 -15 -4
-24 -3 -17 6 -22 33 -19 8 1 12 -16 12 -57 0 -76 18 -100 82 -108 26 -4 58 -4
73 0 22 6 24 9 15 26 -7 13 -21 20 -39 20 -36 0 -48 16 -46 60 3 56 4 57 28
57 43 1 47 3 43 26 -2 18 -9 22 -37 22 -23 0 -34 5 -35 15 -1 8 -2 21 -2 28
-1 7 -17 12 -42 12 -38 0 -40 -2 -40 -29z"/>
<path d="M1467 297 c-89 -22 -127 -114 -71 -171 46 -45 151 -60 221 -31 l36
15 -21 21 c-17 15 -26 17 -41 9 -39 -20 -131 -5 -131 22 0 10 26 13 105 12
116 -1 124 3 97 57 -28 56 -116 86 -195 66z m111 -60 c25 -20 10 -27 -58 -27
-56 0 -68 3 -64 14 12 32 88 40 122 13z"/>
<path d="M325 228 c1 -40 5 -83 9 -95 14 -43 109 -67 172 -43 15 6 31 7 38 2
6 -5 26 -10 44 -10 l32 -1 0 110 0 110 -42 -3 -43 -3 0 -64 c-1 -54 -4 -66
-24 -82 -27 -22 -41 -23 -76 -7 -23 11 -25 16 -25 85 l0 73 -43 0 -43 0 1 -72z"/>
<path d="M1048 268 c64 -108 102 -178 102 -191 0 -18 -41 -30 -73 -22 -15 4
-26 0 -35 -15 -11 -18 -10 -21 13 -30 37 -14 80 -12 119 4 31 13 66 67 183
279 2 4 -14 7 -36 7 -38 0 -40 -2 -75 -65 -42 -73 -53 -84 -64 -58 -4 10 -20
42 -36 71 -28 51 -30 52 -73 52 l-45 0 20 -32z"/>
</g>
</svg>
